:SAMPLES-PER-SECOND 24
:FULLY-SPECIFIED
:DEGREES
282
root  0.967073 36.3154 10.7362 110.153 14.5878 138.726
RightUpLeg  11.3714 5.88098 -45.6002
RightLeg  53.4318 6.84654 9.43007
RightFoot  -12.069 -0.162897 -12.8887
RightToes  -1.74623e-010 0 -2.59999e-017
Spine  41.1732 2.22319 -9.0473
Spine1  24.4229 10.0723 -22.9309
HEad  18.4803 7.64953 -2.6826
LeftShoulder1  3.15054 -4.84332 -31.7388
LeftArm  -48.2508 -3.21666 -3.6915
LeftForeArm  131.28 -64.8706 -155.03
LeftHand  -0.697994 3.33518 38.7509
RightShoulder  0.982816 2.76612 8.21547
RightArm  -65.5022 42.0564 -12.6565
RightForeArm  137.429 72.346 144.918
RightHand  -0.238473 -2.17659 -8.34118
LeftUpLeg  -101.727 36.1969 7.54095
LeftLeg  15.074 13.6169 -2.61099
LeftFoot  5.80347 2.14175 -14.1446
LeftToes  -6.27559e-011 -2.10356e-011 8.24929e-012
283
root  1.08102 36.1564 9.88029 108.433 15.5205 135.821
RightUpLeg  11.2105 7.54082 -44.8798
RightLeg  52.7144 0.623234 0.492663
RightFoot  -16.024 -0.639701 -12.9344
RightToes  -1.74623e-010 0 -2.59999e-017
Spine  39.514 3.22902 -9.17617
Spine1  24.2464 11.4916 -23.5875
HEad  20.8381 10.1287 -3.62689
LeftShoulder1  3.21602 -4.69899 -33.1994
LeftArm  -43.5205 5.55137 -3.82445
LeftForeArm  135.554 -60.1336 -159.678
LeftHand  -0.476899 3.91266 37.0558
RightShoulder  1.15637 3.03314 10.4775
RightArm  -65.7375 42.4486 -11.1817
RightForeArm  141.451 69.4815 150.351
RightHand  -0.150718 -3.10486 -7.06082
LeftUpLeg  -94.3764 40.6235 18.0077
LeftLeg  8.40181 19.6117 -4.40835
LeftFoot  21.8989 5.43102 -18.5599
LeftToes  -6.27559e-011 -2.10356e-011 8.24929e-012
284
root  1.38998 36.3416 9.71386 108.786 17.4219 132.77
RightUpLeg  10.0666 9.19033 -42.5759
RightLeg  49.9789 -3.38818 -4.64314
RightFoot  -18.2195 -0.944696 -13.5871
RightToes  -1.74623e-010 0 -2.59999e-017
Spine  32.1272 3.57086 -5.67292
Spine1  26.5987 14.5053 -26.0394
HEad  24.397 14.7535 -4.9991
LeftShoulder1  3.05129 -4.42246 -32.4863
LeftArm  -34.2532 11.2606 -7.88973
LeftForeArm  139.213 -58.7903 -160.944
LeftHand  -0.415311 3.98719 34.3311
RightShoulder  1.45788 3.8471 12.8789
RightArm  -53.9292 49.1459 0.0928139
RightForeArm  143.799 69.1102 151.15
RightHand  -0.0551553 -4.03723 -3.3035
LeftUpLeg  -79.0767 40.3763 24.951
LeftLeg  6.87005 9.47603 -2.71348
LeftFoot  34.7192 7.84359 -18.8753
LeftToes  -6.27559e-011 -2.10356e-011 8.24929e-012
285
root  1.84815 37.0802 9.51922 110.423 19.478 130.933
RightUpLeg  9.77441 8.4404 -42.2551
RightLeg  44.9958 -2.66782 -3.16131
RightFoot  -17.5588 -0.92311 -14.7266
RightToes  -1.74623e-010 0 -2.59999e-017
Spine  22.6745 4.65072 0.327592
Spine1  28.9473 16.9485 -27.3016
HEad  28.5519 18.7556 -6.43368
LeftShoulder1  2.94179 -4.10689 -32.6444
LeftArm  -23.8362 15.2286 -11.304
LeftForeArm  142.888 -59.3606 -160.844
LeftHand  -0.252192 4.40795 29.6684
RightShoulder  2.05007 5.05214 17.3883
RightArm  -29.6026 51.7362 19.7771
RightForeArm  144.359 68.7438 151.737
RightHand  -0.00355473 -4.67308 4.12012
LeftUpLeg  -56.6549 34.7313 31.0632
LeftLeg  1.26218 2.03144 -1.45589
LeftFoot  40.5573 9.38228 -19.6949
LeftToes  -6.27559e-011 -2.10356e-011 8.24929e-012
286
root  2.30355 37.9529 9.37263 111.561 21.2236 131.445
RightUpLeg  12.4482 5.91657 -41.6875
RightLeg  38.9314 -1.00459 -1.13051
RightFoot  -14.8398 -0.570907 -15.2894
RightToes  -1.74623e-010 0 -2.59999e-017
Spine  15.9888 5.29171 5.41324
Spine1  29.7719 17.6684 -26.1348
HEad  32.2648 22.0404 -7.68832
LeftShoulder1  2.86433 -3.83444 -33.019
LeftArm  -17.791 21.7458 -13.9254
LeftForeArm  147.846 -58.0268 -162.149
LeftHand  -0.161303 4.52448 21.1053
RightShoulder  2.86049 6.02593 23.8974
RightArm  -6.18909 46.5101 35.7368
RightForeArm  145.296 68.4516 152.257
RightHand  -0.0796789 -5.84787 10.6626
LeftUpLeg  -37.2784 23.8684 30.4308
LeftLeg  0.245448 0.645646 -0.432617
LeftFoot  41.7141 9.99847 -20.4356
LeftToes  -6.27559e-011 -2.10356e-011 8.24929e-012
287
root  2.74577 38.8182 9.03871 111.529 22.9824 131.154
RightUpLeg  15.963 5.56587 -40.8293
RightLeg  32.0563 -0.303587 -0.439721
RightFoot  -11.9887 -0.1647 -14.4813
RightToes  -1.74623e-010 0 -2.59999e-017
Spine  11.266 5.45162 8.4492
Spine1  28.1326 17.1178 -24.3507
HEad  34.614 24.5445 -7.96459
LeftShoulder1  2.59587 -3.48396 -31.1211
LeftArm  -17.0639 28.7437 -16.8078
LeftForeArm  152.461 -54.6203 -164.511
LeftHand  -0.232678 3.43157 13.5308
RightShoulder  3.32106 6.27898 28
RightArm  8.45318 35.8147 45.4078
RightForeArm  151.071 67.4722 154.223
RightHand  -0.121263 -6.07356 12.8402
LeftUpLeg  -21.0439 15.4557 23.0021
LeftLeg  6.40585 -2.19667 -1.24559
LeftFoot  40.5179 10.204 -21.3667
LeftToes  -6.27559e-011 -2.10356e-011 8.24929e-012
288
root  3.10226 39.4235 8.5298 113.268 26.5996 131.149
RightUpLeg  16.9178 5.12853 -38.101
RightLeg  27.0676 0.626278 0.118831
RightFoot  -10.422 0.0361242 -13.2045
RightToes  -1.74623e-010 0 -2.59999e-017
Spine  5.61359 5.11775 11.6726
Spine1  25.799 15.779 -21.9445
HEad  34.4881 25.9245 -7.09005
LeftShoulder1  2.26337 -3.10102 -28.1936
LeftArm  -18.7321 30.5007 -18.0434
LeftForeArm  153.862 -51.7392 -166.05
LeftHand  -0.274082 2.94318 12.5995
RightShoulder  3.30017 6.14191 28.2597
RightArm  14.8767 23.7142 50.731
RightForeArm  159.302 64.2145 158.505
RightHand  -0.157128 -6.29018 13.7487
LeftUpLeg  -7.59037 12.5183 13.2758
LeftLeg  11.6446 -9.37769 -2.7471
LeftFoot  38.6112 10.2987 -22.48
LeftToes  -6.27559e-011 -2.10356e-011 8.24929e-012
289
root  3.41169 39.692 8.44239 116.674 31.4375 132.763
RightUpLeg  15.9578 2.0476 -33.699
RightLeg  24.4042 2.56513 1.04679
RightFoot  -9.39483 0.16278 -13.2251
RightToes  -1.74623e-010 0 -2.59999e-017
Spine  0.444026 4.55963 12.5859
Spine1  25.0545 13.2694 -17.9281
HEad  31.6277 27.9753 -5.96621
LeftShoulder1  2.02548 -2.78487 -26.0673
LeftArm  -21.8565 27.1516 -17.7327
LeftForeArm  152.639 -50.4505 -166.546
LeftHand  -0.227215 3.73958 15.3826
RightShoulder  3.27998 6.08131 28.2669
RightArm  17.6841 16.7176 51.5043
RightForeArm  162.211 60.1847 161.977
RightHand  -0.214827 -6.75331 13.6983
LeftUpLeg  3.88685 9.88336 5.38838
LeftLeg  12.1051 -12.3191 -3.66446
LeftFoot  30.9238 7.60678 -20.0351
LeftToes  -6.27559e-011 -2.10356e-011 8.24929e-012
290
root  3.64737 39.8067 8.72509 121.726 35.5295 136.788
RightUpLeg  15.1539 -2.1869 -28.1549
RightLeg  22.1192 3.85353 1.50787
RightFoot  -7.94922 0.357683 -13.8062
RightToes  -1.74623e-010 0 -2.59999e-017
Spine  -3.39068 3.70056 10.4322
Spine1  25.3092 9.49815 -12.5677
HEad  27.4957 30.4864 -5.26236
LeftShoulder1  1.87433 -2.61933 -24.4002
LeftArm  -24.9599 21.1826 -18.0229
LeftForeArm  151.484 -51.2094 -166.123
LeftHand  -0.130743 4.52516 16.1156
RightShoulder  3.38821 6.13155 29.2377
RightArm  19.9591 15.4609 51.0364
RightForeArm  161.527 58.5617 162.986
RightHand  -0.131524 -6.24584 11.332
LeftUpLeg  12.8243 9.69696 0.352649
LeftLeg  11.0508 -5.12313 -3.25482
LeftFoot  17.5276 4.16704 -16.544
LeftToes  -6.27559e-011 -2.10356e-011 8.24929e-012
